ffmpeg started on 2025-05-12 at 20:57:43
Report written to "D:\Convert\FFMetrics\reports\psnr_report-6.txt"
Log level: 32
Command line:
ffmpeg -hide_banner -nostdin -i "G:\\\xc0\xed\xe8\xec\xe5\\\xce\xed\xe3\xee\xe8\xed\xe3\xe8\\!_35_\xcb\xe5\xf2\xee_2024\\DreamCast-1\\\xcf\xf0\xe8\xea\xeb\xfe\xf7\xe5\xed\xe8\xff \xe2 \xe4\xf0\xf3\xe3\xee\xec \xec\xe8\xf0\xe5 - \xc2\xee\xf1\xef\xe8\xf2\xfb\xe2\xe0\xf2\xfc \xe4\xe5\xf2\xe5\xe9 \xe1\xf3\xe4\xf3\xf7\xe8 \xe0\xe2\xe0\xed\xf2\xfe\xf0\xe8\xf1\xf2\xee\xec\\[DC] Iseyuru - 10_Telegram_HEVC.mkv" -i "G:\\\xc0\xed\xe8\xec\xe5\\\xce\xed\xe3\xee\xe8\xed\xe3\xe8\\!_35_\xcb\xe5\xf2\xee_2024\\DreamCast-1\\\xcf\xf0\xe8\xea\xeb\xfe\xf7\xe5\xed\xe8\xff \xe2 \xe4\xf0\xf3\xe3\xee\xec \xec\xe8\xf0\xe5 - \xc2\xee\xf1\xef\xe8\xf2\xfb\xe2\xe0\xf2\xfc \xe4\xe5\xf2\xe5\xe9 \xe1\xf3\xe4\xf3\xf7\xe8 \xe0\xe2\xe0\xed\xf2\xfe\xf0\xe8\xf1\xf2\xee\xec\\[DC] Iseyuru - 10_Telegram.mp4" -lavfi "[0:v]settb=AVTB,setpts=PTS-STARTPTS,format=pix_fmts=yuv420p10,fps=24000/1001,scale=1920:1080:flags=bicubic[main];[1:v]settb=AVTB,setpts=PTS-STARTPTS,format=pix_fmts=yuv420p,fps=24000/1001,scale=1920:1080:flags=bicubic[ref];[main][ref]psnr=eof_action=endall:stats_file='D\\:/Convert/FFMetrics/logs/psnr_logfile-6.txt'" -f null -
Input #0, matroska,webm, from 'G:\Аниме\Онгоинги\!_35_Лето_2024\DreamCast-1\Приключения в другом мире - Воспитывать детей будучи авантюристом\[DC] Iseyuru - 10_Telegram_HEVC.mkv':
  Metadata:
    COMPATIBLE_BRANDS: isomiso2avc1mp41
    MAJOR_BRAND     : isom
    MINOR_VERSION   : 512
    ENCODER         : Lavf61.7.100
  Duration: 00:23:56.76, start: -0.021000, bitrate: 784 kb/s
  Stream #0:0: Video: hevc (Main 10), yuv420p10le(tv, bt709, progressive), 1920x1080 [SAR 1:1 DAR 16:9], 23.98 fps, 23.98 tbr, 1k tbn (default)
      Metadata:
        HANDLER_NAME    : VideoHandler
        VENDOR_ID       : [0][0][0][0]
        ENCODER         : Lavc61.19.100 libx265
        BPS             : 587107
        DURATION        : 00:23:56.643708333
        NUMBER_OF_FRAMES: 34445
        NUMBER_OF_BYTES : 105432952
        _STATISTICS_WRITING_APP: mkvpropedit v66.0.0 ('Josie') 64-bit
        _STATISTICS_WRITING_DATE_UTC: 2025-05-10 14:15:58
        _STATISTICS_TAGS: BPS DURATION NUMBER_OF_FRAMES NUMBER_OF_BYTES
  Stream #0:1: Audio: aac (LC), 48000 Hz, stereo, fltp (default)
      Metadata:
        HANDLER_NAME    : SoundHandler
        VENDOR_ID       : [0][0][0][0]
        ENCODER         : Lavc61.19.100 aac
        BPS             : 193497
        DURATION        : 00:23:56.757000000
        NUMBER_OF_FRAMES: 67349
        NUMBER_OF_BYTES : 34751022
        _STATISTICS_WRITING_APP: mkvpropedit v66.0.0 ('Josie') 64-bit
        _STATISTICS_WRITING_DATE_UTC: 2025-05-10 14:15:58
        _STATISTICS_TAGS: BPS DURATION NUMBER_OF_FRAMES NUMBER_OF_BYTES
Input #1, mov,mp4,m4a,3gp,3g2,mj2, from 'G:\Аниме\Онгоинги\!_35_Лето_2024\DreamCast-1\Приключения в другом мире - Воспитывать детей будучи авантюристом\[DC] Iseyuru - 10_Telegram.mp4':
  Metadata:
    major_brand     : isom
    minor_version   : 512
    compatible_brands: isomiso2avc1mp41
    encoder         : Lavf61.1.100
  Duration: 00:23:56.71, start: 0.000000, bitrate: 3393 kb/s
  Stream #1:0[0x1](und): Video: h264 (High) (avc1 / 0x31637661), yuv420p(tv, bt709, progressive), 1920x1080 [SAR 1:1 DAR 16:9], 3245 kb/s, 23.98 fps, 23.98 tbr, 24k tbn (default)
      Metadata:
        handler_name    : VideoHandler
        vendor_id       : [0][0][0][0]
        encoder         : Lavc61.3.100 h264_qsv
  Stream #1:1[0x2](und): Audio: aac (HE-AACv2) (mp4a / 0x6134706D), 48000 Hz, stereo, fltp, 144 kb/s (default)
      Metadata:
        handler_name    : SoundHandler
        vendor_id       : [0][0][0][0]
Stream mapping:
  Stream #0:0 (hevc) -> settb:default
  Stream #1:0 (h264) -> settb:default
  psnr:default -> Stream #0:0 (wrapped_avframe)
  Stream #0:1 -> #0:1 (aac (native) -> pcm_s16le (native))
Output #0, null, to 'pipe:':
  Metadata:
    COMPATIBLE_BRANDS: isomiso2avc1mp41
    MAJOR_BRAND     : isom
    MINOR_VERSION   : 512
    encoder         : Lavf61.7.100
  Stream #0:0: Video: wrapped_avframe, yuv420p10le(tv, bt709, progressive), 1920x1080 [SAR 1:1 DAR 16:9], q=2-31, 200 kb/s, 23.98 fps, 23.98 tbn
      Metadata:
        encoder         : Lavc61.19.100 wrapped_avframe
  Stream #0:1: Audio: pcm_s16le, 48000 Hz, stereo, s16, 1536 kb/s (default)
      Metadata:
        HANDLER_NAME    : SoundHandler
        VENDOR_ID       : [0][0][0][0]
        _STATISTICS_TAGS: BPS DURATION NUMBER_OF_FRAMES NUMBER_OF_BYTES
        BPS             : 193497
        DURATION        : 00:23:56.757000000
        NUMBER_OF_FRAMES: 67349
        NUMBER_OF_BYTES : 34751022
        _STATISTICS_WRITING_APP: mkvpropedit v66.0.0 ('Josie') 64-bit
        _STATISTICS_WRITING_DATE_UTC: 2025-05-10 14:15:58
        encoder         : Lavc61.19.100 pcm_s16le
frame=  155 fps=0.0 q=-0.0 size=N/A time=00:00:06.46 bitrate=N/A speed=12.4x    frame=  428 fps=411 q=-0.0 size=N/A time=00:00:17.85 bitrate=N/A speed=17.2x    frame=  687 fps=442 q=-0.0 size=N/A time=00:00:28.65 bitrate=N/A speed=18.4x    frame=  904 fps=437 q=-0.0 size=N/A time=00:00:37.70 bitrate=N/A speed=18.2x    frame= 1076 fps=416 q=-0.0 size=N/A time=00:00:44.87 bitrate=N/A speed=17.4x    frame= 1220 fps=393 q=-0.0 size=N/A time=00:00:50.88 bitrate=N/A speed=16.4x    frame= 1418 fps=392 q=-0.0 size=N/A time=00:00:59.14 bitrate=N/A speed=16.3x    frame= 1643 fps=399 q=-0.0 size=N/A time=00:01:08.52 bitrate=N/A speed=16.6x    frame= 1857 fps=400 q=-0.0 size=N/A time=00:01:17.45 bitrate=N/A speed=16.7x    frame= 2059 fps=399 q=-0.0 size=N/A time=00:01:25.87 bitrate=N/A speed=16.6x    frame= 2250 fps=397 q=-0.0 size=N/A time=00:01:33.84 bitrate=N/A speed=16.5x    frame= 2498 fps=403 q=-0.0 size=N/A time=00:01:44.18 bitrate=N/A speed=16.8x    frame= 2674 fps=399 q=-0.0 size=N/A time=00:01:51.52 bitrate=N/A speed=16.6x    frame= 2913 fps=404 q=-0.0 size=N/A time=00:02:01.49 bitrate=N/A speed=16.8x    frame= 3136 fps=405 q=-0.0 size=N/A time=00:02:10.79 bitrate=N/A speed=16.9x    frame= 3394 fps=411 q=-0.0 size=N/A time=00:02:21.55 bitrate=N/A speed=17.1x    frame= 3635 fps=414 q=-0.0 size=N/A time=00:02:31.60 bitrate=N/A speed=17.3x    frame= 3869 fps=416 q=-0.0 size=N/A time=00:02:41.36 bitrate=N/A speed=17.4x    frame= 4099 fps=418 q=-0.0 size=N/A time=00:02:50.96 bitrate=N/A speed=17.4x    frame= 4369 fps=423 q=-0.0 size=N/A time=00:03:02.26 bitrate=N/A speed=17.7x    frame= 4603 fps=425 q=-0.0 size=N/A time=00:03:11.98 bitrate=N/A speed=17.7x    frame= 4830 fps=425 q=-0.0 size=N/A time=00:03:21.45 bitrate=N/A speed=17.7x    frame= 5078 fps=428 q=-0.0 size=N/A time=00:03:31.79 bitrate=N/A speed=17.9x    frame= 5322 fps=430 q=-0.0 size=N/A time=00:03:41.97 bitrate=N/A speed=17.9x    frame= 5585 fps=433 q=-0.0 size=N/A time=00:03:52.94 bitrate=N/A speed=18.1x    frame= 5830 fps=435 q=-0.0 size=N/A time=00:04:03.15 bitrate=N/A speed=18.1x    frame= 6079 fps=436 q=-0.0 size=N/A time=00:04:13.54 bitrate=N/A speed=18.2x    frame= 6326 fps=438 q=-0.0 size=N/A time=00:04:23.84 bitrate=N/A speed=18.3x    frame= 6591 fps=441 q=-0.0 size=N/A time=00:04:34.89 bitrate=N/A speed=18.4x    frame= 6851 fps=443 q=-0.0 size=N/A time=00:04:45.74 bitrate=N/A speed=18.5x    frame= 7111 fps=445 q=-0.0 size=N/A time=00:04:56.58 bitrate=N/A speed=18.5x    frame= 7377 fps=447 q=-0.0 size=N/A time=00:05:07.68 bitrate=N/A speed=18.6x    frame= 7621 fps=448 q=-0.0 size=N/A time=00:05:17.85 bitrate=N/A speed=18.7x    frame= 7876 fps=449 q=-0.0 size=N/A time=00:05:28.49 bitrate=N/A speed=18.7x    frame= 8092 fps=448 q=-0.0 size=N/A time=00:05:37.50 bitrate=N/A speed=18.7x    frame= 8341 fps=449 q=-0.0 size=N/A time=00:05:47.88 bitrate=N/A speed=18.7x    frame= 8603 fps=451 q=-0.0 size=N/A time=00:05:58.81 bitrate=N/A speed=18.8x    frame= 8833 fps=451 q=-0.0 size=N/A time=00:06:08.40 bitrate=N/A speed=18.8x    frame= 9075 fps=451 q=-0.0 size=N/A time=00:06:18.50 bitrate=N/A speed=18.8x    frame= 9336 fps=453 q=-0.0 size=N/A time=00:06:29.38 bitrate=N/A speed=18.9x    frame= 9592 fps=454 q=-0.0 size=N/A time=00:06:40.06 bitrate=N/A speed=18.9x    frame= 9857 fps=455 q=-0.0 size=N/A time=00:06:51.11 bitrate=N/A speed=  19x    frame=10105 fps=456 q=-0.0 size=N/A time=00:07:01.46 bitrate=N/A speed=  19x    frame=10363 fps=457 q=-0.0 size=N/A time=00:07:12.22 bitrate=N/A speed=19.1x    frame=10607 fps=457 q=-0.0 size=N/A time=00:07:22.40 bitrate=N/A speed=19.1x    frame=10852 fps=457 q=-0.0 size=N/A time=00:07:32.61 bitrate=N/A speed=19.1x    frame=11118 fps=458 q=-0.0 size=N/A time=00:07:43.71 bitrate=N/A speed=19.1x    frame=11379 fps=459 q=-0.0 size=N/A time=00:07:54.59 bitrate=N/A speed=19.2x    frame=11613 fps=459 q=-0.0 size=N/A time=00:08:04.35 bitrate=N/A speed=19.2x    frame=11876 fps=460 q=-0.0 size=N/A time=00:08:15.32 bitrate=N/A speed=19.2x    frame=12129 fps=461 q=-0.0 size=N/A time=00:08:25.88 bitrate=N/A speed=19.2x    frame=12373 fps=461 q=-0.0 size=N/A time=00:08:36.05 bitrate=N/A speed=19.2x    frame=12622 fps=461 q=-0.0 size=N/A time=00:08:46.44 bitrate=N/A speed=19.2x    frame=12873 fps=462 q=-0.0 size=N/A time=00:08:56.91 bitrate=N/A speed=19.3x    frame=13099 fps=461 q=-0.0 size=N/A time=00:09:06.33 bitrate=N/A speed=19.2x    frame=13341 fps=462 q=-0.0 size=N/A time=00:09:16.43 bitrate=N/A speed=19.3x    frame=13588 fps=462 q=-0.0 size=N/A time=00:09:26.73 bitrate=N/A speed=19.3x    frame=13844 fps=462 q=-0.0 size=N/A time=00:09:37.41 bitrate=N/A speed=19.3x    frame=14096 fps=463 q=-0.0 size=N/A time=00:09:47.96 bitrate=N/A speed=19.3x    frame=14349 fps=463 q=-0.0 size=N/A time=00:09:58.47 bitrate=N/A speed=19.3x    frame=14601 fps=464 q=-0.0 size=N/A time=00:10:08.98 bitrate=N/A speed=19.3x    frame=14829 fps=463 q=-0.0 size=N/A time=00:10:18.49 bitrate=N/A speed=19.3x    frame=15077 fps=464 q=-0.0 size=N/A time=00:10:28.83 bitrate=N/A speed=19.3x    frame=15318 fps=464 q=-0.0 size=N/A time=00:10:38.88 bitrate=N/A speed=19.3x    frame=15582 fps=464 q=-0.0 size=N/A time=00:10:49.89 bitrate=N/A speed=19.4x    frame=15842 fps=465 q=-0.0 size=N/A time=00:11:00.74 bitrate=N/A speed=19.4x    frame=16073 fps=465 q=-0.0 size=N/A time=00:11:10.37 bitrate=N/A speed=19.4x    frame=16320 fps=465 q=-0.0 size=N/A time=00:11:20.68 bitrate=N/A speed=19.4x    frame=16565 fps=465 q=-0.0 size=N/A time=00:11:30.89 bitrate=N/A speed=19.4x    frame=16796 fps=465 q=-0.0 size=N/A time=00:11:40.53 bitrate=N/A speed=19.4x    frame=17022 fps=465 q=-0.0 size=N/A time=00:11:49.95 bitrate=N/A speed=19.4x    frame=17262 fps=465 q=-0.0 size=N/A time=00:11:59.96 bitrate=N/A speed=19.4x    frame=17508 fps=465 q=-0.0 size=N/A time=00:12:10.22 bitrate=N/A speed=19.4x    frame=17763 fps=465 q=-0.0 size=N/A time=00:12:20.86 bitrate=N/A speed=19.4x    frame=18014 fps=465 q=-0.0 size=N/A time=00:12:31.33 bitrate=N/A speed=19.4x    frame=18273 fps=466 q=-0.0 size=N/A time=00:12:42.13 bitrate=N/A speed=19.4x    frame=18524 fps=466 q=-0.0 size=N/A time=00:12:52.60 bitrate=N/A speed=19.4x    frame=18779 fps=466 q=-0.0 size=N/A time=00:13:03.24 bitrate=N/A speed=19.5x    frame=19057 fps=467 q=-0.0 size=N/A time=00:13:14.83 bitrate=N/A speed=19.5x    frame=19318 fps=468 q=-0.0 size=N/A time=00:13:25.72 bitrate=N/A speed=19.5x    frame=19577 fps=468 q=-0.0 size=N/A time=00:13:36.52 bitrate=N/A speed=19.5x    frame=19824 fps=468 q=-0.0 size=N/A time=00:13:46.82 bitrate=N/A speed=19.5x    frame=20083 fps=469 q=-0.0 size=N/A time=00:13:57.62 bitrate=N/A speed=19.5x    frame=20357 fps=469 q=-0.0 size=N/A time=00:14:09.05 bitrate=N/A speed=19.6x    frame=20618 fps=470 q=-0.0 size=N/A time=00:14:19.94 bitrate=N/A speed=19.6x    frame=20853 fps=470 q=-0.0 size=N/A time=00:14:29.74 bitrate=N/A speed=19.6x    frame=21109 fps=470 q=-0.0 size=N/A time=00:14:40.42 bitrate=N/A speed=19.6x    frame=21366 fps=470 q=-0.0 size=N/A time=00:14:51.14 bitrate=N/A speed=19.6x    frame=21616 fps=470 q=-0.0 size=N/A time=00:15:01.56 bitrate=N/A speed=19.6x    frame=21861 fps=471 q=-0.0 size=N/A time=00:15:11.78 bitrate=N/A speed=19.6x    frame=22122 fps=471 q=-0.0 size=N/A time=00:15:22.67 bitrate=N/A speed=19.6x    frame=22360 fps=471 q=-0.0 size=N/A time=00:15:32.59 bitrate=N/A speed=19.6x    frame=22577 fps=470 q=-0.0 size=N/A time=00:15:41.64 bitrate=N/A speed=19.6x    frame=22826 fps=470 q=-0.0 size=N/A time=00:15:52.03 bitrate=N/A speed=19.6x    frame=23077 fps=471 q=-0.0 size=N/A time=00:16:02.50 bitrate=N/A speed=19.6x    frame=23335 fps=471 q=-0.0 size=N/A time=00:16:13.26 bitrate=N/A speed=19.6x    frame=23609 fps=471 q=-0.0 size=N/A time=00:16:24.69 bitrate=N/A speed=19.7x    frame=23853 fps=471 q=-0.0 size=N/A time=00:16:34.86 bitrate=N/A speed=19.7x    frame=24114 fps=472 q=-0.0 size=N/A time=00:16:45.75 bitrate=N/A speed=19.7x    frame=24360 fps=472 q=-0.0 size=N/A time=00:16:56.01 bitrate=N/A speed=19.7x    frame=24613 fps=472 q=-0.0 size=N/A time=00:17:06.56 bitrate=N/A speed=19.7x    frame=24880 fps=472 q=-0.0 size=N/A time=00:17:17.70 bitrate=N/A speed=19.7x    frame=25144 fps=473 q=-0.0 size=N/A time=00:17:28.71 bitrate=N/A speed=19.7x    frame=25405 fps=473 q=-0.0 size=N/A time=00:17:39.60 bitrate=N/A speed=19.7x    frame=25647 fps=473 q=-0.0 size=N/A time=00:17:49.69 bitrate=N/A speed=19.7x    frame=25908 fps=473 q=-0.0 size=N/A time=00:18:00.57 bitrate=N/A speed=19.7x    frame=26164 fps=474 q=-0.0 size=N/A time=00:18:11.25 bitrate=N/A speed=19.7x    frame=26386 fps=473 q=-0.0 size=N/A time=00:18:20.51 bitrate=N/A speed=19.7x    frame=26623 fps=473 q=-0.0 size=N/A time=00:18:30.44 bitrate=N/A speed=19.7x    frame=26862 fps=473 q=-0.0 size=N/A time=00:18:40.36 bitrate=N/A speed=19.7x    frame=27071 fps=472 q=-0.0 size=N/A time=00:18:49.08 bitrate=N/A speed=19.7x    frame=27315 fps=472 q=-0.0 size=N/A time=00:18:59.26 bitrate=N/A speed=19.7x    frame=27561 fps=472 q=-0.0 size=N/A time=00:19:09.52 bitrate=N/A speed=19.7x    frame=27777 fps=472 q=-0.0 size=N/A time=00:19:18.53 bitrate=N/A speed=19.7x    frame=27993 fps=471 q=-0.0 size=N/A time=00:19:27.54 bitrate=N/A speed=19.7x    frame=28230 fps=471 q=-0.0 size=N/A time=00:19:37.42 bitrate=N/A speed=19.7x    frame=28449 fps=471 q=-0.0 size=N/A time=00:19:46.56 bitrate=N/A speed=19.6x    frame=28659 fps=470 q=-0.0 size=N/A time=00:19:55.31 bitrate=N/A speed=19.6x    frame=28908 fps=471 q=-0.0 size=N/A time=00:20:05.70 bitrate=N/A speed=19.6x    frame=29165 fps=471 q=-0.0 size=N/A time=00:20:16.42 bitrate=N/A speed=19.6x    frame=29414 fps=471 q=-0.0 size=N/A time=00:20:26.80 bitrate=N/A speed=19.6x    frame=29656 fps=471 q=-0.0 size=N/A time=00:20:36.90 bitrate=N/A speed=19.6x    frame=29899 fps=471 q=-0.0 size=N/A time=00:20:47.03 bitrate=N/A speed=19.6x    frame=30133 fps=471 q=-0.0 size=N/A time=00:20:56.79 bitrate=N/A speed=19.6x    frame=30381 fps=471 q=-0.0 size=N/A time=00:21:07.14 bitrate=N/A speed=19.6x    frame=30627 fps=471 q=-0.0 size=N/A time=00:21:17.40 bitrate=N/A speed=19.6x    frame=30858 fps=471 q=-0.0 size=N/A time=00:21:27.03 bitrate=N/A speed=19.6x    frame=31099 fps=471 q=-0.0 size=N/A time=00:21:37.08 bitrate=N/A speed=19.6x    frame=31348 fps=471 q=-0.0 size=N/A time=00:21:47.47 bitrate=N/A speed=19.6x    frame=31607 fps=471 q=-0.0 size=N/A time=00:21:58.27 bitrate=N/A speed=19.6x    frame=31853 fps=471 q=-0.0 size=N/A time=00:22:08.53 bitrate=N/A speed=19.6x    frame=32084 fps=471 q=-0.0 size=N/A time=00:22:18.17 bitrate=N/A speed=19.6x    frame=32318 fps=471 q=-0.0 size=N/A time=00:22:27.92 bitrate=N/A speed=19.6x    frame=32569 fps=471 q=-0.0 size=N/A time=00:22:38.39 bitrate=N/A speed=19.6x    frame=32795 fps=471 q=-0.0 size=N/A time=00:22:47.82 bitrate=N/A speed=19.6x    frame=33002 fps=470 q=-0.0 size=N/A time=00:22:56.45 bitrate=N/A speed=19.6x    frame=33188 fps=469 q=-0.0 size=N/A time=00:23:04.21 bitrate=N/A speed=19.6x    frame=33390 fps=469 q=-0.0 size=N/A time=00:23:12.64 bitrate=N/A speed=19.6x    frame=33589 fps=468 q=-0.0 size=N/A time=00:23:20.94 bitrate=N/A speed=19.5x    frame=33791 fps=468 q=-0.0 size=N/A time=00:23:29.36 bitrate=N/A speed=19.5x    frame=33957 fps=467 q=-0.0 size=N/A time=00:23:36.28 bitrate=N/A speed=19.5x    frame=34174 fps=466 q=-0.0 size=N/A time=00:23:45.34 bitrate=N/A speed=19.4x    frame=34369 fps=466 q=-0.0 size=N/A time=00:23:53.47 bitrate=N/A speed=19.4x    [Parsed_psnr_10 @ 00000248e8b26080] PSNR y:49.859314 u:50.023124 v:50.762965 average:50.025208 min:42.611102 max:inf
[out#0/null @ 00000248e61b4e00] video:14801KiB audio:269396KiB subtitle:0KiB other streams:0KiB global headers:0KiB muxing overhead: unknown
frame=34445 fps=466 q=-0.0 Lsize=N/A time=00:23:56.64 bitrate=N/A speed=19.4x    
